<?xml version="1.0" standalone="no"?><!DOCTYPE svg PUBLIC "-//W3C//DTD SVG 1.1//EN" "http://www.w3.org/Graphics/SVG/1.1/DTD/svg11.dtd"><svg t="1680791102953" class="icon" viewBox="0 0 3014 1024" version="1.1" xmlns="http://www.w3.org/2000/svg" p-id="1414" xmlns:xlink="http://www.w3.org/1999/xlink" width="588.671875" height="200"><path d="M148.048193 342.978313l-93.763856 49.349398c-14.804819 7.40241-24.674699 11.103614-29.609638 11.103614-8.636145 0-16.038554-2.46747-19.739759-8.636144-2.46747-4.93494-4.93494-14.804819-4.93494-25.908434 0-13.571084 2.46747-29.609639 8.636145-46.881928 6.168675-17.272289 12.337349-30.843373 19.739759-39.479518 8.636145-8.636145 25.908434-20.973494 55.518072-35.778313 28.375904-14.804819 62.920482-30.843373 103.633735-45.648193 40.713253-14.804819 82.660241-28.375904 127.074699-38.245783 44.414458-9.86988 83.893976-14.804819 120.906024-14.804819 25.908434 0 44.414458 3.701205 56.751807 12.337349 12.337349 8.636145 18.506024 29.609639 18.506024 64.154217 0 18.506024-6.168675 39.479518-19.739759 62.920482-12.337349 23.440964-28.375904 45.648193-46.881928 66.621687-18.506024 22.207229-51.816867 60.453012-99.93253 115.971084 25.908434-3.701205 45.648193-6.168675 56.751807-7.40241 12.337349-1.233735 34.544578-3.701205 67.855422-7.402409 38.245783-55.518072 69.089157-99.93253 93.763856-133.243374 23.440964-33.310843 44.414458-60.453012 60.453012-82.660241 16.038554-22.207229 25.908434-34.544578 29.609638-37.012048 6.168675-6.168675 11.103614-8.636145 14.804819-7.40241 3.701205 1.233735 6.168675 7.40241 6.168675 18.506025 0 12.337349-1.233735 20.973494-3.701205 29.609638-2.46747 7.40241-6.168675 14.804819-11.103614 22.207229s-7.40241 11.103614-8.636145 12.337349c-7.40241 12.337349-18.506024 28.375904-32.077108 49.349398-13.571084 19.739759-28.375904 39.479518-41.946988 59.219277-13.571084 19.739759-29.609639 43.180723-46.881928 70.322892 32.077108 1.233735 64.154217 4.93494 96.231325 12.337349l-77.725301 106.101205c-20.973494-2.46747-49.349398-4.93494-85.127711-4.93494-8.636145 17.272289-14.804819 30.843373-19.739759 40.713253-4.93494 9.86988-8.636145 19.739759-12.337349 28.375904-3.701205 8.636145-4.93494 17.272289-4.93494 24.674699 0 4.93494 1.233735 11.103614 3.701205 18.506024 2.46747 7.40241 3.701205 12.337349 3.701205 13.571084 0 6.168675-3.701205 12.337349-12.33735 18.506024s-18.506024 12.337349-29.609638 17.272289c-11.103614 4.93494-19.739759 7.40241-27.142169 7.40241-11.103614 0-16.038554-8.636145-16.038554-24.674699 0-33.310843 17.272289-80.192771 51.816867-140.645783-45.648193 3.701205-98.698795 11.103614-157.918072 20.973494-17.272289 22.207229-32.077108 44.414458-46.881928 64.154217-13.571084 19.739759-24.674699 37.012048-34.544578 50.583132-8.636145 13.571084-14.804819 23.440964-19.739759 27.142169-4.93494 2.46747-9.86988 3.701205-14.804819 3.701205-8.636145 0-16.038554-3.701205-20.973494-11.103615-2.46747-2.46747-3.701205-6.168675-4.93494-8.636144-1.233735-2.46747-1.233735-4.93494-1.233735-8.636145V703.228916c0-3.701205 2.46747-8.636145 6.168675-14.80482s12.337349-19.739759 27.142169-39.479518c13.571084-19.739759 24.674699-34.544578 30.843373-44.414458-7.40241 1.233735-17.272289 1.233735-29.609639 1.233735-14.804819 0-27.142169-2.46747-37.012048-8.636144-9.86988-4.93494-13.571084-12.337349-13.571084-20.973494 0-9.86988 2.46747-19.739759 7.40241-29.609639 4.93494-11.103614 11.103614-19.739759 18.506024-25.908433 7.40241-7.40241 16.038554-11.103614 23.440964-11.103615 4.93494 0 11.103614 1.233735 18.506024 4.93494l112.269879-27.142169c62.920482-67.855422 108.568675-120.906024 139.412048-160.385542 30.843373-39.479518 45.648193-64.154217 45.648193-76.491566 0-6.168675-1.233735-11.103614-4.93494-16.038554-3.701205-3.701205-8.636145-7.40241-14.804819-9.86988-6.168675-2.46747-13.571084-3.701205-20.973494-3.701205-9.86988 0-24.674699 2.46747-45.648193 7.40241-20.973494 4.93494-45.648193 12.337349-74.024096 23.440964-28.375904 9.86988-64.154217 24.674699-107.33494 41.946988-32.077108 13.571084-48.115663 20.973494-48.115662 24.674698 0 3.701205 2.46747 6.168675 6.168674 7.40241 4.93494 1.233735 9.86988 2.46747 17.272289 2.46747 7.40241 0 9.86988 1.233735 9.86988 2.46747s-1.233735 2.46747-4.93494 4.93494c-1.233735 2.46747-6.168675 4.93494-12.337349 7.402409zM837.706024 587.257831v32.077109c-28.375904 35.778313-54.284337 62.920482-78.959036 81.426506s-44.414458 27.142169-61.686747 27.142168c-23.440964 0-41.946988-12.337349-53.050602-37.012048-11.103614-24.674699-17.272289-51.816867-17.27229-81.426506 0-11.103614 1.233735-22.207229 3.701205-32.077108 2.46747-9.86988 4.93494-18.506024 8.636145-25.908434 3.701205-6.168675 8.636145-17.272289 17.272289-30.843373 40.713253-64.154217 78.959036-96.231325 112.269879-96.231326 17.272289 0 25.908434 7.40241 25.908434 20.973494 0 9.86988-6.168675 23.440964-17.272289 43.180723-11.103614 19.739759-22.207229 33.310843-30.843373 41.946988-24.674699 24.674699-41.946988 40.713253-49.349398 50.583133-7.40241 9.86988-11.103614 20.973494-11.103614 32.077108 0 9.86988 3.701205 18.506024 11.103614 25.908434s18.506024 9.86988 30.843373 9.869879c13.571084 0 28.375904-4.93494 44.414458-14.804819 17.272289-8.636145 38.245783-24.674699 65.387952-46.881928z m-29.609638-193.696385c-7.40241 0-13.571084-2.46747-20.973494-8.636145-6.168675-4.93494-9.86988-12.337349-9.86988-20.973494 0-12.337349 6.168675-27.142169 18.506024-41.946988s24.674699-23.440964 38.245783-23.440964c8.636145 0 16.038554 2.46747 22.207229 8.636145 6.168675 4.93494 8.636145 13.571084 8.636145 23.440964 0 12.337349-6.168675 25.908434-17.272289 40.713253-13.571084 14.804819-25.908434 22.207229-39.479518 22.207229zM1438.53494 545.310843c-34.544578 1.233735-60.453012 1.233735-76.491567 1.233735-24.674699 0-59.219277 0-103.633734-1.233735-9.86988 9.86988-20.973494 22.207229-33.310844 35.778314l-38.245783 38.245783c-12.337349 11.103614-22.207229 22.207229-30.843373 29.609638-8.636145 8.636145-16.038554 14.804819-20.973494 20.973494-32.077108 30.843373-53.050602 51.816867-62.920482 61.686747-9.86988 9.86988-19.739759 18.506024-30.843374 25.908434-11.103614 7.40241-20.973494 11.103614-29.609638 11.103614-9.86988 0-14.804819-4.93494-14.80482-13.571084 0-9.86988 7.40241-25.908434 22.207229-46.881928 14.804819-20.973494 30.843373-39.479518 49.349398-55.518072 18.506024-16.038554 33.310843-24.674699 44.414458-24.674699 3.701205 0 7.40241 1.233735 13.571084 4.93494l82.660241-87.595181c-9.86988-1.233735-23.440964-2.46747-40.713253-2.46747s-28.375904-1.233735-33.310843-3.701204c-6.168675-2.46747-8.636145-7.40241-8.636145-14.80482 0-12.337349 13.571084-32.077108 39.479518-57.985542 14.804819-14.804819 28.375904-24.674699 40.713253-28.375903 12.337349-3.701205 37.012048-6.168675 72.790362-6.168675-20.973494 2.46747-35.778313 6.168675-44.414458 9.869879-8.636145 3.701205-13.571084 9.86988-14.80482 17.27229h50.583133c11.103614 0 19.739759 0 25.908434-1.233735 46.881928-45.648193 90.062651-86.361446 129.542168-120.906024 38.245783-34.544578 80.192771-66.621687 122.139759-97.465061s88.828916-59.219277 136.944579-85.127711c9.86988 12.337349 14.804819 25.908434 14.804819 39.479519 0 11.103614-3.701205 24.674699-11.103614 39.479518s-23.440964 41.946988-46.881928 82.660241c-23.440964 40.713253-48.115663 83.893976-72.790362 129.542168h19.739759c4.93494 0 11.103614 0 17.27229 1.233735 16.038554 0 25.908434 0 29.609638 1.233735 3.701205 0 4.93494 3.701205 4.93494 8.636145 0 2.46747-2.46747 6.168675-6.168675 12.337349-4.93494 6.168675-12.337349 16.038554-23.440964 29.609639-11.103614 13.571084-22.207229 27.142169-33.310843 41.946988l-64.154217 4.934939c-33.310843 64.154217-50.583133 99.93253-50.583132 107.33494 0 12.337349 6.168675 17.272289 18.506024 17.272289 6.168675 0 30.843373-12.337349 75.257831-38.245783l-3.701205 23.440964c-23.440964 18.506024-41.946988 32.077108-55.518072 41.946988-13.571084 9.86988-24.674699 18.506024-34.544578 25.908434-9.86988 7.40241-18.506024 12.337349-25.908434 14.804819-7.40241 3.701205-16.038554 4.93494-24.674699 4.93494-9.86988 0-18.506024-4.93494-28.375904-13.571085-9.86988-8.636145-13.571084-20.973494-13.571084-37.012048 0-6.168675 2.46747-16.038554 7.40241-28.375903 4.93494-12.337349 9.86988-24.674699 16.038554-35.778314s22.207229-39.479518 44.414458-82.660241z m-81.426506-98.698795l140.645783-2.46747c16.038554-28.375904 29.609639-50.583133 40.713253-67.855421 9.86988-17.272289 20.973494-35.778313 33.310843-56.751808 12.337349-20.973494 23.440964-38.245783 32.077109-51.816867 8.636145-13.571084 18.506024-29.609639 29.609638-48.115663-20.973494 13.571084-41.946988 27.142169-64.154217 43.180723-22.207229 16.038554-45.648193 34.544578-72.790361 57.985542-27.142169 22.207229-51.816867 43.180723-72.790362 62.920482-22.207229 18.506024-43.180723 39.479518-66.621686 62.920482zM1822.226506 588.491566c-25.908434 28.375904-48.115663 53.050602-67.855422 74.024097-19.739759 19.739759-37.012048 35.778313-49.349397 45.648192s-20.973494 14.804819-25.908434 14.80482c-7.40241 0-16.038554-6.168675-25.908434-18.506024s-17.272289-27.142169-24.674699-46.881928c-6.168675-18.506024-9.86988-38.245783-9.869879-56.751807 0-28.375904 13.571084-56.751807 40.713253-85.127711 27.142169-28.375904 57.985542-51.816867 92.53012-70.322892s60.453012-28.375904 77.725302-28.375903c13.571084 0 28.375904 8.636145 41.946988 27.142168 22.207229-46.881928 43.180723-87.595181 64.154216-124.607229 19.739759-35.778313 37.012048-62.920482 50.583133-80.192771 13.571084-17.272289 23.440964-25.908434 29.609639-25.908433s12.337349 3.701205 17.272289 9.869879c4.93494 6.168675 8.636145 13.571084 8.636144 20.973494 0 14.804819-11.103614 40.713253-33.310843 77.725301-22.207229 37.012048-43.180723 72.790361-65.387952 107.33494-20.973494 34.544578-39.479518 69.089157-55.518072 102.4-14.804819 33.310843-23.440964 65.387952-23.440964 93.763855 0 25.908434 8.636145 39.479518 24.674699 39.479519 9.86988 0 23.440964-6.168675 38.245783-17.27229 14.804819-11.103614 37.012048-30.843373 65.387952-57.985542v32.077109c-62.920482 80.192771-111.036145 120.906024-144.346988 120.906024-13.571084 0-23.440964-4.93494-29.609639-16.038554-6.168675-9.86988-8.636145-25.908434-8.636144-46.881928 1.233735-29.609639 4.93494-59.219277 12.337349-91.296386z m32.077108-106.101205c-25.908434 8.636145-55.518072 22.207229-90.06265 41.946988-34.544578 19.739759-55.518072 32.077108-62.920482 39.479518-6.168675 6.168675-12.337349 16.038554-17.272289 32.077109-4.93494 16.038554-7.40241 28.375904-7.40241 35.778313 0 4.93494 1.233735 8.636145 4.93494 12.33735 2.46747 3.701205 6.168675 4.93494 11.103614 4.934939 3.701205 0 8.636145-1.233735 13.571085-4.934939s13.571084-9.86988 24.674698-20.973494c11.103614-9.86988 18.506024-16.038554 22.207229-19.739759 4.93494-4.93494 16.038554-13.571084 33.310844-28.375904s29.609639-25.908434 37.012048-33.310843c7.40241-8.636145 14.804819-17.272289 19.739759-27.142169 4.93494-8.636145 8.636145-19.739759 11.103614-32.077109z" fill="currentColor" p-id="1415"></path><path d="M2192.346988 647.710843c39.479518-35.778313 74.024096-65.387952 102.4-92.53012 28.375904-25.908434 50.583133-46.881928 67.855422-61.686747 16.038554-14.804819 30.843373-27.142169 43.180723-38.245783 12.337349-9.86988 20.973494-16.038554 23.440963-16.038554 6.168675 0 13.571084 6.168675 18.506024 20.973494 6.168675 13.571084 8.636145 24.674699 8.636145 33.310843 0 4.93494-8.636145 18.506024-27.142169 38.245783-18.506024 20.973494-32.077108 37.012048-40.713253 49.349398s-13.571084 24.674699-13.571084 38.245783c0 7.40241 2.46747 13.571084 7.40241 18.506024s11.103614 7.40241 18.506024 7.402409c8.636145 0 18.506024-4.93494 29.609638-13.571084s29.609639-24.674699 55.518073-46.881928V616.86747c-24.674699 23.440964-48.115663 44.414458-69.089157 61.686747-20.973494 17.272289-38.245783 29.609639-53.050602 38.245783s-28.375904 12.337349-38.245784 12.337349c-8.636145 0-16.038554-3.701205-22.207228-9.869879s-8.636145-14.804819-8.636145-25.908434c0-9.86988 1.233735-19.739759 4.93494-29.609638 3.701205-9.86988 8.636145-22.207229 16.038554-35.778314 7.40241-13.571084 17.272289-30.843373 28.375904-50.583132 12.337349-19.739759 22.207229-37.012048 32.077108-53.050603-29.609639 23.440964-55.518072 46.881928-78.959036 69.089157-23.440964 22.207229-41.946988 41.946988-55.518072 57.985542-14.804819 16.038554-25.908434 29.609639-34.544579 39.479518-16.038554 18.506024-30.843373 27.142169-45.648193 27.142169-14.804819 0-22.207229-11.103614-22.207228-32.077108 0-8.636145 6.168675-24.674699 17.272289-46.881928 11.103614-22.207229 27.142169-50.583133 48.115662-85.127711 1.233735-2.46747 2.46747-6.168675 2.46747-11.103615 0-6.168675-2.46747-8.636145-8.636144-8.636144-6.168675 0-16.038554 6.168675-27.142169 18.506024-12.337349 12.337349-35.778313 37.012048-69.089157 75.257831-9.86988 11.103614-19.739759 24.674699-32.077108 41.946988s-20.973494 28.375904-25.908434 34.544579c-4.93494 6.168675-9.86988 8.636145-16.038554 8.636144-9.86988 0-19.739759-9.86988-29.609639-27.142168-8.636145-18.506024-13.571084-39.479518-13.571084-64.154217 0-18.506024 2.46747-33.310843 8.636145-46.881928 6.168675-13.571084 14.804819-29.609639 27.142168-48.115663 19.739759-28.375904 35.778313-48.115663 46.881928-60.453012 12.337349-12.337349 24.674699-18.506024 38.245783-18.506024 8.636145 0 16.038554 1.233735 20.973494 4.93494 6.168675 3.701205 8.636145 7.40241 8.636145 13.571084 0 6.168675-4.93494 16.038554-16.038554 29.609639-11.103614 13.571084-23.440964 28.375904-40.713254 43.180723-8.636145 8.636145-17.272289 18.506024-24.674698 30.843373-7.40241 12.337349-11.103614 20.973494-11.103615 27.142169 0 7.40241 2.46747 11.103614 8.636145 11.103614 4.93494 0 17.272289-9.86988 37.012048-30.843373 19.739759-19.739759 41.946988-41.946988 65.387952-66.621687s45.648193-43.180723 66.621687-59.219277c20.973494-16.038554 38.245783-23.440964 51.816867-23.440964 8.636145 0 16.038554 3.701205 20.973494 9.86988s8.636145 14.804819 8.636145 24.674698c0 6.168675-4.93494 17.272289-13.571085 34.544579-8.636145 16.038554-20.973494 37.012048-38.245783 61.686747-9.86988 23.440964-32.077108 53.050602-57.985542 88.828915z" fill="currentColor" p-id="1416"></path><path d="M2690.775904 587.257831v32.077109c-28.375904 35.778313-54.284337 62.920482-78.959037 81.426506s-44.414458 27.142169-61.686747 27.142168c-23.440964 0-41.946988-12.337349-53.050602-37.012048-11.103614-24.674699-17.272289-51.816867-17.272289-81.426506 0-11.103614 1.233735-22.207229 3.701205-32.077108 2.46747-9.86988 4.93494-18.506024 8.636144-25.908434 3.701205-6.168675 8.636145-17.272289 17.272289-30.843373 40.713253-64.154217 78.959036-96.231325 112.26988-96.231326 17.272289 0 25.908434 7.40241 25.908434 20.973494 0 9.86988-6.168675 23.440964-17.272289 43.180723-11.103614 19.739759-22.207229 33.310843-30.843374 41.946988-24.674699 24.674699-41.946988 40.713253-49.349398 50.583133-7.40241 9.86988-11.103614 20.973494-11.103614 32.077108 0 9.86988 3.701205 18.506024 11.103614 25.908434s18.506024 9.86988 30.843374 9.869879c13.571084 0 28.375904-4.93494 44.414458-14.804819 18.506024-8.636145 39.479518-24.674699 65.387952-46.881928z m-28.375904-193.696385c-7.40241 0-13.571084-2.46747-20.973494-8.636145-6.168675-4.93494-9.86988-12.337349-9.869879-20.973494 0-12.337349 6.168675-27.142169 18.506024-41.946988s24.674699-23.440964 38.245783-23.440964c8.636145 0 16.038554 2.46747 22.207229 8.636145 6.168675 4.93494 8.636145 13.571084 8.636144 23.440964 0 12.337349-6.168675 25.908434-17.272289 40.713253-13.571084 14.804819-25.908434 22.207229-39.479518 22.207229z" fill="currentColor" p-id="1417"></path><path d="M2979.46988 509.53253c-50.583133 56.751807-76.491566 96.231325-76.491567 118.438554 0 12.337349 4.93494 18.506024 14.80482 18.506024 8.636145 0 19.739759-4.93494 33.310843-13.571084 13.571084-8.636145 34.544578-24.674699 62.920482-46.881928v29.609639c-40.713253 40.713253-72.790361 69.089157-94.997591 87.595181-22.207229 18.506024-39.479518 27.142169-54.284337 27.142168-23.440964 0-35.778313-16.038554-35.778313-46.881927 0-9.86988 1.233735-18.506024 4.93494-27.142169 2.46747-8.636145 7.40241-18.506024 12.337349-28.375904 4.93494-9.86988 12.337349-23.440964 23.440964-41.946988 9.86988-18.506024 22.207229-38.245783 35.778313-61.686747-16.038554 8.636145-37.012048 24.674699-61.686747 49.349398-16.038554 16.038554-29.609639 30.843373-40.713253 44.414458-11.103614 13.571084-23.440964 29.609639-35.778313 46.881928s-22.207229 28.375904-28.375904 34.544578c-6.168675 6.168675-12.337349 8.636145-18.506024 8.636144-9.86988 0-17.272289-9.86988-25.908434-29.609638-7.40241-19.739759-11.103614-41.946988-11.103614-67.855422 0-16.038554 1.233735-28.375904 4.93494-37.012048 3.701205-8.636145 11.103614-22.207229 20.973494-38.245783 19.739759-30.843373 37.012048-53.050602 51.816867-67.855422 14.804819-14.804819 28.375904-20.973494 41.946988-20.973494 9.86988 0 17.272289 1.233735 22.207229 4.93494 6.168675 3.701205 8.636145 8.636145 8.636145 14.804819 0 2.46747-1.233735 6.168675-2.46747 8.636145-1.233735 3.701205-3.701205 6.168675-6.168675 8.636144s-6.168675 7.40241-13.571084 14.80482c-45.648193 50.583133-69.089157 83.893976-69.089157 98.698795 0 8.636145 2.46747 12.337349 8.636145 12.337349 3.701205 0 9.86988-6.168675 19.739759-17.272289 9.86988-11.103614 23.440964-25.908434 38.245783-44.414458 16.038554-18.506024 34.544578-37.012048 55.518072-56.751807 20.973494-19.739759 45.648193-38.245783 74.024097-56.751807 14.804819-11.103614 28.375904-16.038554 38.245783-16.038554 4.93494 0 8.636145 6.168675 13.571084 18.506024 4.93494 12.337349 6.168675 25.908434 6.168675 38.245783 1.233735 11.103614-4.93494 20.973494-17.272289 34.544578z" fill="currentColor" p-id="1418"></path></svg>